<svg xmlns="http://www.w3.org/2000/svg" viewBox="0 0 32 32" width="32" height="32">
  <defs>
    <linearGradient id="bg" x1="0" y1="0" x2="0" y2="1">
      <stop offset="0%" stop-color="#f1e8d0"/>
      <stop offset="100%" stop-color="#c5b187"/>
    </linearGradient>
  </defs>

  <rect x="2" y="2" width="28" height="28" rx="4" fill="url(#bg)" stroke="#5a4630" stroke-width="1.2"/>
  <path
    d="M11 25h10v2H11zm1-2h8v2h-8zm1-2h6v2h-6zm0-8c0-3 2-5 5-5 2 0 3.8 1 4.6 2.7-.8.1-1.8.7-2.4 1.6-.7 1.2-.6 2.5.3 3.5-.6 1.8-2.2 3.2-4.4 3.2-1.8 0-3.3-.8-4.1-2.1-.3-.5-.5-1.1-.5-1.9z"
    fill="#2d2d2d"
  />
  <circle cx="17.6" cy="12.6" r="0.8" fill="#f1e8d0"/>
</svg>
